<svg width="229" height="105" viewBox="0 0 229 105" fill="none" xmlns="http://www.w3.org/2000/svg">
<g filter="url(#filter0_d_1753_441)">
<path d="M6.97715 74.293C7.71325 74.293 8.388 74.0476 8.94007 73.5569C9.49215 73.0662 9.79885 72.3301 9.79885 71.5326C9.79885 70.7352 9.49215 70.0604 8.94007 69.5084C8.388 68.9563 7.71325 68.7109 6.97715 68.7109C6.17972 68.7109 5.50496 69.0176 5.01423 69.5697C4.5235 70.1218 4.2168 70.7965 4.2168 71.594C4.2168 72.3914 4.5235 73.0662 5.01423 73.6182C5.5663 74.0476 6.24106 74.293 6.97715 74.293Z" fill="#30C2E2"/>
<path d="M7.03763 78.2168C5.56544 78.2168 5.07471 79.1369 4.89069 79.505C4.70667 79.9957 4.58398 80.6091 4.58398 81.2839V93.0614C4.58398 93.7975 4.64533 94.4109 4.82935 94.9016C4.95203 95.2697 5.44276 96.1898 6.91495 96.1898C7.46702 96.1898 7.89641 96.0671 8.20312 95.8831C8.57117 95.6377 8.81653 95.331 9.00056 94.9016C9.12324 94.5949 9.18458 94.2882 9.24592 93.9202C9.24592 93.6748 9.30726 93.3681 9.30726 93.0614V81.2225C9.30726 80.6091 9.24592 80.057 9.0619 79.5663C8.93921 79.1983 8.44848 78.2168 7.03763 78.2168Z" fill="#30C2E2"/>
<path d="M43.5367 72.208C41.3284 70.4904 37.9546 69.5703 33.5381 69.5703C31.4525 69.5703 29.4282 69.7543 27.588 70.1837C25.6864 70.6131 24.0302 71.3492 22.6807 72.392C21.2698 73.4348 20.1657 74.8457 19.3069 76.5632C18.5095 78.2808 18.0801 80.4277 18.0801 82.9427C18.0801 84.8443 18.3254 86.6232 18.8162 88.2181C19.3069 89.8743 20.1657 91.2851 21.2698 92.4506C22.374 93.6161 23.8462 94.5362 25.6251 95.211C27.3426 95.8244 29.4896 96.1924 31.9432 96.1924C34.2742 96.1924 36.2984 96.0084 37.9546 95.7017C39.6109 95.395 41.0831 95.0269 42.2485 94.5975C43.414 94.1682 44.3341 93.7388 45.0089 93.3094C45.8063 92.8186 46.113 92.5119 46.2971 92.3893C46.6651 92.0826 46.8491 91.7145 46.8491 91.2238C46.8491 90.7944 46.6651 90.365 46.3584 89.997C45.929 89.5062 45.4996 89.4449 45.1929 89.4449C45.0702 89.4449 44.9476 89.4449 44.7022 89.5676C44.6408 89.5676 44.5795 89.6289 44.5182 89.6289C44.1501 89.8743 43.6594 90.181 43.046 90.549C42.4326 90.9171 41.6351 91.2238 40.5923 91.5918C39.6109 91.9599 38.384 92.2052 36.9732 92.4506C35.5623 92.696 33.9061 92.8187 32.0045 92.8187C30.3483 92.8187 28.8761 92.6346 27.6493 92.2666C26.4838 91.8985 25.441 91.3465 24.6436 90.6104C23.8462 89.8743 23.2327 88.8928 22.8034 87.666C22.4353 86.6232 22.1899 85.2737 22.1286 83.8015H45.561C45.9904 83.8015 46.2971 83.5561 46.4811 83.0041C46.6038 82.7587 46.6651 82.452 46.7878 82.0839C46.8491 81.7159 46.9105 81.3478 46.9718 80.9798C47.0332 80.6117 47.0332 80.2437 47.0332 79.937C47.0332 76.5632 45.8677 73.9869 43.5367 72.208ZM22.9874 77.5447C23.4781 76.5019 24.2142 75.6431 25.1343 74.9683C26.0544 74.2936 27.2813 73.8029 28.6308 73.4962C30.0416 73.1895 31.6978 73.0054 33.5381 73.0054C35.501 73.0054 37.1572 73.1894 38.4454 73.5575C39.7335 73.9255 40.7763 74.4163 41.5738 75.0297C42.3099 75.6431 42.862 76.3792 43.23 77.1153C43.5367 77.9127 43.7207 78.8328 43.7207 79.753V80.6731H22.1899C22.3126 79.5076 22.558 78.4035 22.9874 77.5447Z" fill="#171717"/>
<path d="M79.9767 82.2058C78.6885 81.7151 77.155 81.4084 75.4987 81.2244C73.9039 81.0403 72.1863 80.979 70.5301 80.979H65.6228C64.0893 80.979 62.6784 80.8563 61.5129 80.6109C60.3474 80.3656 59.4273 79.9975 58.7526 79.5068C58.2005 79.0774 57.8938 78.464 57.8938 77.6666C57.8938 76.8078 58.1392 76.133 58.6299 75.581C59.182 74.9675 59.9181 74.4768 60.7768 74.1088C61.697 73.7407 62.8624 73.434 64.0893 73.25C65.3774 73.066 66.6656 73.0046 68.0151 73.0046C70.6528 73.0046 73.1064 73.25 75.2534 73.8021C77.339 74.2928 79.2406 75.0289 80.9581 75.8877C81.1421 76.0104 81.3262 76.0717 81.5715 76.0717C81.8782 76.0717 82.3076 75.949 82.737 75.4583C82.9824 75.0902 83.1664 74.7222 83.1664 74.2315C83.1664 74.1701 83.1664 74.1701 83.1664 74.1088C83.1051 73.8634 83.0437 73.618 82.9824 73.3727C82.8597 73.066 82.6143 72.8206 82.2463 72.6366C80.222 71.5324 77.9524 70.735 75.6214 70.3056C73.2905 69.8762 70.7141 69.6309 68.0151 69.6309C66.3589 69.6309 64.7027 69.7535 63.1078 69.9376C61.4516 70.1829 59.9794 70.551 58.6912 71.1644C57.3417 71.7778 56.2376 72.5752 55.3788 73.618C54.52 74.6608 54.0293 76.0717 54.0293 77.7279C54.0293 79.3228 54.4587 80.6723 55.3788 81.5924C56.2376 82.5125 57.3417 83.1873 58.6912 83.678C59.9794 84.1074 61.5129 84.4141 63.1691 84.5981C64.764 84.7208 66.4816 84.7822 68.1378 84.7822H73.0451C74.5786 84.7822 75.9895 84.9048 77.155 85.2115C78.3204 85.4569 79.2406 85.8863 79.9153 86.4384C80.4674 86.9291 80.7741 87.5425 80.7741 88.4013C80.7741 89.1987 80.5287 89.8121 80.038 90.3029C79.4859 90.8549 78.6885 91.3457 77.707 91.7137C76.6642 92.0818 75.4374 92.3271 74.0879 92.5112C72.677 92.6952 71.2662 92.7565 69.7327 92.7565H65.9908C64.8254 92.7565 63.7212 92.6338 62.6784 92.4498C61.6356 92.2658 60.5928 91.9591 59.6727 91.591C58.7526 91.223 57.8938 90.7323 57.0964 90.1802C56.9123 90.0575 56.667 89.8735 56.2376 89.8735C55.8082 89.8735 55.3788 90.0575 55.0721 90.4869C54.8267 90.8549 54.704 91.223 54.704 91.6524C54.704 92.0204 54.8267 92.5725 55.4401 93.0632C56.3603 93.8607 57.4644 94.4741 58.7526 94.9035C59.9794 95.3329 61.2676 95.6396 62.5557 95.8849C63.8439 96.069 65.1934 96.1916 66.4816 96.1916H70.0394C71.8796 96.1916 73.6585 96.0689 75.3761 95.8236C77.0936 95.5782 78.6885 95.1488 80.038 94.5968C81.4488 94.0447 82.553 93.2472 83.4118 92.2658C84.3319 91.223 84.7613 89.9962 84.7613 88.4626C84.7613 86.8064 84.3319 85.5183 83.4118 84.5368C82.4303 83.4326 81.3262 82.6966 79.9767 82.2058Z" fill="#171717"/>
<path d="M97.6968 75.2743C98.6782 74.4768 99.905 73.8634 101.439 73.4954C103.033 73.1273 104.996 72.9433 107.266 72.9433C108.186 72.9433 109.168 73.0046 110.149 73.1273C111.13 73.25 112.112 73.434 112.971 73.6794C113.83 73.8634 114.688 74.1088 115.424 74.4155C116.16 74.6608 116.774 74.9062 117.203 75.1516C117.265 75.1516 117.265 75.1516 117.326 75.2129C117.694 75.3356 118.001 75.3969 118.185 75.3969C118.798 75.3969 119.166 75.1516 119.35 74.9675C119.657 74.6608 119.78 74.2928 119.78 73.8634C119.78 73.5567 119.718 73.25 119.534 72.9433C119.35 72.6366 119.105 72.3912 118.737 72.2072C116.897 71.2257 114.934 70.551 112.971 70.1829C111.008 69.8149 109.106 69.6309 107.266 69.6309C104.751 69.6309 102.481 69.8149 100.518 70.2443C98.4942 70.6737 96.7766 71.4098 95.3658 72.4526C93.9549 73.4954 92.8508 74.9062 92.0534 76.6238C91.3173 78.3413 90.9492 80.4883 90.9492 83.0033C90.9492 85.5796 91.3786 87.7265 92.176 89.3827C92.9735 91.1003 94.139 92.4498 95.6111 93.4926C97.022 94.4741 98.8009 95.2102 100.764 95.5782C102.727 95.9463 104.874 96.1303 107.266 96.1303C109.106 96.1303 111.008 95.9463 112.971 95.5782C114.934 95.2102 116.897 94.5354 118.798 93.554C119.166 93.3699 119.412 93.1246 119.596 92.8179C119.78 92.5112 119.841 92.2045 119.841 91.8977C119.841 91.4684 119.657 91.1003 119.412 90.7936C119.228 90.6096 118.859 90.3029 118.246 90.3029C118.062 90.3029 117.755 90.3642 117.387 90.4869C117.326 90.4869 117.326 90.4869 117.265 90.5482C116.774 90.7936 116.222 91.039 115.486 91.2843C114.75 91.5297 113.891 91.7751 113.032 92.0204C112.112 92.2044 111.192 92.3885 110.21 92.5725C109.229 92.6952 108.247 92.7565 107.327 92.7565C105.18 92.7565 103.34 92.5725 101.745 92.2045C100.212 91.8364 98.9236 91.2843 97.9421 90.4869C96.9607 89.7508 96.2246 88.7693 95.7338 87.5425C95.2431 86.3157 94.9977 84.7208 94.9977 82.9419C94.9977 81.163 95.2431 79.5681 95.6725 78.28C96.0405 77.0531 96.7766 76.0717 97.6968 75.2743Z" fill="#171717"/>
<path d="M146.958 70.3686C146.651 70.3073 146.345 70.1846 146.038 70.1233C145.731 70.0619 145.363 69.9392 144.872 69.8779C144.443 69.8165 143.952 69.7552 143.339 69.6939C142.112 69.5712 140.517 69.5712 138.432 69.8165C137.327 70.0006 136.223 70.3073 135.18 70.7367C134.138 71.2274 133.095 71.9022 132.236 72.6996C132.113 72.8223 131.929 73.0063 131.807 73.1903V72.7609C131.807 72.1475 131.745 71.6568 131.561 71.2274C131.439 70.8593 131.009 70.2459 129.966 70.2459C128.862 70.2459 128.372 70.7367 128.188 71.1661C128.004 71.5954 127.881 72.1475 127.881 72.7609V92.8809C127.881 93.1876 127.881 93.4943 127.942 93.7396C127.942 94.0464 128.065 94.4144 128.126 94.6598C128.249 95.0278 128.494 95.2732 128.801 95.5185C129.108 95.7639 129.476 95.8252 129.905 95.8252C130.764 95.8252 131.377 95.3959 131.623 94.5984C131.807 94.0463 131.868 93.4943 131.868 92.8809V78.527C132.175 77.6682 132.604 76.8708 133.156 76.196C133.77 75.5213 134.444 74.9079 135.242 74.4785C136.039 74.0491 137.021 73.681 138.002 73.4357C139.045 73.1903 140.149 73.0676 141.315 73.0676C142.112 73.0676 142.909 73.129 143.584 73.2517C144.259 73.3743 144.995 73.5584 145.854 73.8037H145.915C146.038 73.8651 146.222 73.8651 146.345 73.8651C147.081 73.8651 147.51 73.497 147.694 73.2517C148.001 72.8836 148.123 72.4542 148.123 72.0248C148.123 71.6568 148.062 71.3501 147.878 71.0434C147.694 70.7367 147.387 70.4913 146.958 70.3686Z" fill="#171717"/>
<path d="M179.715 72.7007C178.365 71.5965 176.709 70.7991 174.685 70.3084C172.722 69.8176 170.391 69.5723 167.692 69.5723C165.054 69.5723 162.662 69.8176 160.699 70.3084C158.675 70.7991 157.018 71.5965 155.669 72.7007C154.319 73.8048 153.277 75.2157 152.663 76.9332C152.05 78.5894 151.682 80.6137 151.682 82.9447C151.682 84.9689 151.988 86.8092 152.54 88.404C153.092 90.0602 154.074 91.4711 155.362 92.6366C156.65 93.8021 158.307 94.6608 160.331 95.2743C162.355 95.8877 164.809 96.1944 167.692 96.1944C170.575 96.1944 173.028 95.8877 175.053 95.2743C177.077 94.6608 178.794 93.8021 180.021 92.6366C181.309 91.4711 182.23 90.0602 182.843 88.404C183.395 86.8092 183.702 84.9689 183.702 82.9447C183.702 80.6137 183.395 78.6508 182.72 76.9332C182.107 75.277 181.064 73.8048 179.715 72.7007ZM179.776 82.9447C179.776 83.7421 179.715 84.6009 179.592 85.3983C179.469 86.1957 179.285 86.9318 178.979 87.6679C178.672 88.404 178.242 89.0174 177.752 89.6309C177.261 90.2443 176.525 90.735 175.666 91.2257C174.807 91.7165 173.703 92.0845 172.415 92.3299C171.127 92.5752 169.532 92.7593 167.753 92.7593C165.974 92.7593 164.379 92.6366 163.091 92.3299C161.803 92.0845 160.699 91.7165 159.84 91.2257C158.981 90.7963 158.245 90.2443 157.754 89.6309C157.202 89.0174 156.834 88.3427 156.528 87.6679C156.221 86.9318 156.037 86.1957 155.914 85.3983C155.792 84.6009 155.73 83.7421 155.73 82.9447C155.73 81.1044 155.976 79.5096 156.405 78.2214C156.834 76.9946 157.57 76.0131 158.491 75.2157C159.411 74.4182 160.699 73.8662 162.171 73.4981C163.705 73.1301 165.606 72.946 167.753 72.946C169.9 72.946 171.802 73.1301 173.335 73.4981C174.807 73.8662 176.095 74.4182 177.016 75.2157C177.936 76.0131 178.61 76.9946 179.101 78.2214C179.531 79.5096 179.776 81.1044 179.776 82.9447Z" fill="#171717"/>
<path d="M224.372 70.7958C223.636 70.0598 222.593 69.9984 221.734 70.6118C221.366 70.9185 221.059 71.3479 220.875 71.9613L215.109 89.8116L209.343 72.3907C209.098 71.6546 208.73 71.1026 208.3 70.7345C207.81 70.3665 207.258 70.1211 206.705 70.1211C205.847 70.1211 204.743 70.4891 204.129 72.3294L198.363 89.7503L192.536 71.9C192.29 71.2866 192.045 70.8572 191.677 70.5505C190.818 69.9371 189.775 69.9984 189.039 70.7345C188.61 71.1639 188.426 71.6546 188.426 72.3294C188.426 72.7588 188.487 73.0655 188.61 73.3108L195.848 93.6761C196.461 95.5164 197.566 95.8844 198.302 95.8844C198.792 95.8844 199.283 95.7004 199.713 95.271C200.081 94.903 200.387 94.4122 200.694 93.6761L206.705 76.0712L212.717 93.6761C212.962 94.4122 213.269 94.903 213.637 95.271C214.066 95.6391 214.557 95.8844 215.109 95.8844C215.661 95.8844 216.152 95.7004 216.581 95.271C217.011 94.903 217.318 94.3509 217.563 93.6761L224.801 73.3108C224.924 73.0655 224.985 72.6974 224.985 72.3294C224.985 71.7773 224.74 71.2252 224.372 70.7958Z" fill="#171717"/>
<path d="M154.924 16.0804C152.593 9.70087 147.563 4.67088 141.061 2.27857C132.534 -0.849832 123.701 0.315653 116.708 5.46832L116.033 5.95905L115.665 5.71368C108.672 0.315652 99.6551 -0.911173 91.0674 2.27857C84.6265 4.67088 79.5965 9.63953 77.2042 16.019C74.1372 24.2387 75.0573 32.9492 79.8419 39.8194C84.5652 46.6283 92.2328 50.6768 100.453 50.6768C106.403 50.6768 110.942 49.1433 115.665 45.5242C115.788 45.4628 115.911 45.4015 115.972 45.4015C116.217 45.4015 116.401 45.5855 116.769 45.7695C121.37 49.0206 126.339 50.6768 131.553 50.6768C139.956 50.6768 147.501 46.8737 152.163 40.1875C157.009 33.3173 157.991 24.5455 154.924 16.0804ZM148.115 30.8023C146.52 36.2616 142.103 40.5555 136.644 42.1504C131.982 43.4386 127.197 42.8865 123.149 40.5555C122.842 40.3715 122.658 40.1261 122.658 39.7581C122.597 39.39 122.719 39.0833 123.026 38.838L132.227 30.4342C132.595 30.0662 133.209 30.0662 133.577 30.3729C134.865 31.3543 135.662 31.7224 135.969 31.7224L138.484 20.9263C138.546 20.5583 138.484 20.1902 138.239 19.9449C137.993 19.6382 137.625 19.5155 137.257 19.5768L126.216 20.8036C126.155 20.8036 126.032 20.8036 125.971 20.865C125.971 21.233 126.584 22.5212 127.381 23.6253L127.688 24.0547L110.267 39.8194C107.323 41.8437 104.01 42.8865 100.514 42.8865C98.9191 42.8865 97.3855 42.7025 95.7906 42.2731C90.1472 40.7396 85.6693 36.3843 84.0131 30.8636C82.4182 25.4042 83.3384 19.7608 86.6508 15.3443C89.9019 10.989 95.0545 8.4127 100.453 8.4127C103.458 8.4127 106.403 9.21014 108.979 10.6823C109.286 10.8664 109.47 11.1117 109.531 11.4798C109.592 11.8478 109.47 12.1545 109.163 12.3999L99.5938 21.1103C99.2258 21.4784 98.6737 21.4784 98.2443 21.1717C96.9561 20.1902 96.1587 19.8835 95.9133 19.8835L93.3983 30.6796C93.337 31.0476 93.3983 31.4157 93.6437 31.661C93.8891 31.9678 94.2571 32.0904 94.6252 32.0291L105.667 30.8023C105.851 30.8023 105.973 30.7409 106.096 30.6182C106.096 30.3729 105.789 29.6981 104.685 28.3486C104.317 27.9192 104.378 27.3058 104.808 26.8764L121.493 11.6024C121.554 11.5411 121.554 11.5411 121.615 11.5411C124.56 9.4555 127.995 8.29002 131.614 8.29002C137.012 8.29002 142.165 10.8664 145.416 15.2216C148.728 19.6995 149.71 25.4042 148.115 30.8023Z" fill="url(#paint0_linear_1753_441)"/>
</g>
<defs>
<filter id="filter0_d_1753_441" x="0.216797" y="0.539062" width="228.768" height="103.655" filterUnits="userSpaceOnUse" color-interpolation-filters="sRGB">
<feFlood flood-opacity="0" result="BackgroundImageFix"/>
<feColorMatrix in="SourceAlpha" type="matrix" values="0 0 0 0 0 0 0 0 0 0 0 0 0 0 0 0 0 0 127 0" result="hardAlpha"/>
<feOffset dy="4"/>
<feGaussianBlur stdDeviation="2"/>
<feComposite in2="hardAlpha" operator="out"/>
<feColorMatrix type="matrix" values="0 0 0 0 0 0 0 0 0 0 0 0 0 0 0 0 0 0 0.25 0"/>
<feBlend mode="normal" in2="BackgroundImageFix" result="effect1_dropShadow_1753_441"/>
<feBlend mode="normal" in="SourceGraphic" in2="effect1_dropShadow_1753_441" result="shape"/>
</filter>
<linearGradient id="paint0_linear_1753_441" x1="98.9144" y1="3.00228" x2="144.711" y2="47.4671" gradientUnits="userSpaceOnUse">
<stop stop-color="#13E6C0"/>
<stop offset="0.509176" stop-color="#5D98F0"/>
<stop offset="1" stop-color="#E020F1"/>
</linearGradient>
</defs>
</svg>
