<svg width="37" height="37" viewBox="0 0 37 37" fill="none" xmlns="http://www.w3.org/2000/svg">
<path d="M35.7741 14.1323C34.7413 11.3048 32.5126 9.07543 29.6316 8.01512C25.8537 6.62856 21.9399 7.14512 18.8414 9.42887L18.5424 9.64636L18.3794 9.53761C15.2809 7.14512 11.2856 6.60137 7.48045 8.01512C4.62662 9.07543 2.39792 11.2776 1.33792 14.1051C-0.0210448 17.7482 0.386642 21.6088 2.50663 24.6538C4.59944 27.6716 7.99686 29.466 11.6389 29.466C14.2753 29.466 16.2866 28.7863 18.3794 27.1823C18.4337 27.1551 18.4881 27.1279 18.5153 27.1279C18.624 27.1279 18.7055 27.2094 18.8686 27.291C20.9071 28.7319 23.1086 29.466 25.4188 29.466C29.1424 29.466 32.4854 27.7804 34.5511 24.8169C36.6982 21.772 37.1331 17.8842 35.7741 14.1323ZM32.7572 20.6573C32.0506 23.0769 30.0937 24.9801 27.6747 25.6869C25.6091 26.2579 23.4891 26.0132 21.6953 24.9801C21.5594 24.8985 21.4778 24.7898 21.4778 24.6266C21.4506 24.4635 21.505 24.3276 21.6409 24.2188L25.7178 20.4941C25.8809 20.331 26.1527 20.331 26.3157 20.467C26.8865 20.902 27.2398 21.0651 27.3757 21.0651L28.4901 16.2801C28.5173 16.117 28.4901 15.9538 28.3814 15.8451C28.2727 15.7092 28.1096 15.6548 27.9465 15.682L23.0542 16.2257C23.027 16.2257 22.9727 16.2257 22.9455 16.2529C22.9455 16.416 23.2173 16.987 23.5706 17.4763L23.7065 17.6667L15.9876 24.6538C14.683 25.551 13.2153 26.0132 11.6661 26.0132C10.9594 26.0132 10.2799 25.9316 9.57326 25.7413C7.07276 25.0616 5.08867 23.1313 4.35483 20.6845C3.64816 18.2648 4.05586 15.7635 5.52354 13.806C6.96405 11.8757 9.24711 10.7339 11.6389 10.7339C12.9707 10.7339 14.2753 11.0873 15.4168 11.7398C15.5527 11.8214 15.6343 11.9301 15.6614 12.0932C15.6886 12.2564 15.6343 12.3923 15.4984 12.501L11.2584 16.3617C11.0953 16.5248 10.8507 16.5248 10.6604 16.3888C10.0897 15.9538 9.73634 15.8179 9.62762 15.8179L8.51327 20.6029C8.48609 20.766 8.51327 20.9291 8.62198 21.0379C8.7307 21.1738 8.89378 21.2282 9.05686 21.201L13.9491 20.6573C14.0307 20.6573 14.085 20.6301 14.1394 20.5757C14.1394 20.467 14.0035 20.1679 13.5143 19.5698C13.3512 19.3795 13.3784 19.1076 13.5686 18.9173L20.9614 12.1476C20.9886 12.1204 20.9886 12.1204 21.0158 12.1204C22.3204 11.196 23.8424 10.6795 25.446 10.6795C27.8378 10.6795 30.1209 11.8214 31.5614 13.7517C33.029 15.7363 33.4639 18.2648 32.7572 20.6573Z" fill="url(#paint0_linear_1852_699)"/>
<defs>
<linearGradient id="paint0_linear_1852_699" x1="10.9573" y1="8.33588" x2="31.2547" y2="28.0374" gradientUnits="userSpaceOnUse">
<stop stop-color="#13E6C0"/>
<stop offset="0.509176" stop-color="#5D98F0"/>
<stop offset="1" stop-color="#E020F1"/>
</linearGradient>
</defs>
</svg>
